PathFileType	4	(X/Y/Z)	C:/Users/Carlo/Dropbox/Carlos/SARAH/CongressoMarcha2025/WorkshopOpenSim/C3D/Caso02/Walking03.c3d.trc
DataRate	CameraRate	NumFrames	NumMarkers	Units	OrigDataRate	OrigDataStartFrame	OrigNumFrames
100.000000	100.000000	2	197	mm	100.000000	150	400
Frame#	Time	PELO			PELA			PELL			PELP			LFEO			LFEA			LFEL			LFEP			LTIO			LTIA			LTIL			LTIP			LFOO			LFOA			LFOL			LFOP			RFEO			RFEA			RFEL			RFEP			RTIO			RTIA			RTIL			RTIP			RFOO			RFOA			RFOL			RFOP			LTOO			LTOA			LTOL			LTOP			RTOO			RTOA			RTOL			RTOP			HEDO			HEDA			HEDL			HEDP			LCLO			LCLA			LCLL			LCLP			RCLO			RCLA			RCLL			RCLP			TRXO			TRXA			TRXL			TRXP			LHUO			LHUA			LHUL			LHUP			LRAO			LRAA			LRAL			LRAP			LHNO			LHNA			LHNL			LHNP			RHUO			RHUA			RHUL			RHUP			RRAO			RRAA			RRAL			RRAP			RHNO			RHNA			RHNL			RHNP			LFHD			RFHD			RBHD			LSHO			LUPA			LELB			LFRM			LWRA			LWRB			LFIN			RSHO			RUPA			RELB			RFRM			RWRA			RWRB			RFIN			LTHI			LKNE			LTIB			LANK			LTOE			RKNE			RTIB			RANK			LASI			LHEE			LBHD			RTHI			RHEE			RTOE			STRN			RASI			CLAV			RPSI			C7			LPSI			RBAK			T10			LHipAngles			LKneeAngles			LAbsAnkleAngle			LAnkleAngles			RHipAngles			RKneeAngles			RAnkleAngles			RAbsAnkleAngle			LPelvisAngles			RPelvisAngles			LFootProgressAngles			RFootProgressAngles			RNeckAngles			LNeckAngles			RSpineAngles			LSpineAngles			LShoulderAngles			LElbowAngles			LWristAngles			RShoulderAngles			RElbowAngles			RWristAngles			RThoraxAngles			LThoraxAngles			RHeadAngles			LHeadAngles			LHipPower			LKneePower			LAnklePower			RHipPower			RKneePower			RAnklePower			LWaistPower			RWaistPower			LNeckPower			RNeckPower			LShoulderPower			RShoulderPower			LElbowPower			RElbowPower			LWristPower			RWristPower			LGroundReactionForce			LNormalisedGRF			RGroundReactionForce			RNormalisedGRF			LAnkleForce			RAnkleForce			RKneeForce			LKneeForce			RHipForce			LHipForce			LWaistForce			RWaistForce			LNeckForce			RNeckForce			LShoulderForce			RShoulderForce			LElbowForce			RElbowForce			LWristForce			RWristForce			LGroundReactionMoment			RGroundReactionMoment			LAnkleMoment			RAnkleMoment			RKneeMoment			LKneeMoment			RHipMoment			LHipMoment			LWaistMoment			RWaistMoment			LNeckMoment			RNeckMoment			LShoulderMoment			RShoulderMoment			LElbowMoment			RElbowMoment			LWristMoment			RWristMoment			CentreOfMass			CentreOfMassFloor			
		X1	Y1	Z1	X2	Y2	Z2	X3	Y3	Z3	X4	Y4	Z4	X5	Y5	Z5	X6	Y6	Z6	X7	Y7	Z7	X8	Y8	Z8	X9	Y9	Z9	X10	Y10	Z10	X11	Y11	Z11	X12	Y12	Z12	X13	Y13	Z13	X14	Y14	Z14	X15	Y15	Z15	X16	Y16	Z16	X17	Y17	Z17	X18	Y18	Z18	X19	Y19	Z19	X20	Y20	Z20	X21	Y21	Z21	X22	Y22	Z22	X23	Y23	Z23	X24	Y24	Z24	X25	Y25	Z25	X26	Y26	Z26	X27	Y27	Z27	X28	Y28	Z28	X29	Y29	Z29	X30	Y30	Z30	X31	Y31	Z31	X32	Y32	Z32	X33	Y33	Z33	X34	Y34	Z34	X35	Y35	Z35	X36	Y36	Z36	X37	Y37	Z37	X38	Y38	Z38	X39	Y39	Z39	X40	Y40	Z40	X41	Y41	Z41	X42	Y42	Z42	X43	Y43	Z43	X44	Y44	Z44	X45	Y45	Z45	X46	Y46	Z46	X47	Y47	Z47	X48	Y48	Z48	X49	Y49	Z49	X50	Y50	Z50	X51	Y51	Z51	X52	Y52	Z52	X53	Y53	Z53	X54	Y54	Z54	X55	Y55	Z55	X56	Y56	Z56	X57	Y57	Z57	X58	Y58	Z58	X59	Y59	Z59	X60	Y60	Z60	X61	Y61	Z61	X62	Y62	Z62	X63	Y63	Z63	X64	Y64	Z64	X65	Y65	Z65	X66	Y66	Z66	X67	Y67	Z67	X68	Y68	Z68	X69	Y69	Z69	X70	Y70	Z70	X71	Y71	Z71	X72	Y72	Z72	X73	Y73	Z73	X74	Y74	Z74	X75	Y75	Z75	X76	Y76	Z76	X77	Y77	Z77	X78	Y78	Z78	X79	Y79	Z79	X80	Y80	Z80	X81	Y81	Z81	X82	Y82	Z82	X83	Y83	Z83	X84	Y84	Z84	X85	Y85	Z85	X86	Y86	Z86	X87	Y87	Z87	X88	Y88	Z88	X89	Y89	Z89	X90	Y90	Z90	X91	Y91	Z91	X92	Y92	Z92	X93	Y93	Z93	X94	Y94	Z94	X95	Y95	Z95	X96	Y96	Z96	X97	Y97	Z97	X98	Y98	Z98	X99	Y99	Z99	X100	Y100	Z100	X101	Y101	Z101	X102	Y102	Z102	X103	Y103	Z103	X104	Y104	Z104	X105	Y105	Z105	X106	Y106	Z106	X107	Y107	Z107	X108	Y108	Z108	X109	Y109	Z109	X110	Y110	Z110	X111	Y111	Z111	X112	Y112	Z112	X113	Y113	Z113	X114	Y114	Z114	X115	Y115	Z115	X116	Y116	Z116	X117	Y117	Z117	X118	Y118	Z118	X119	Y119	Z119	X120	Y120	Z120	X121	Y121	Z121	X122	Y122	Z122	X123	Y123	Z123	X124	Y124	Z124	X125	Y125	Z125	X126	Y126	Z126	X127	Y127	Z127	X128	Y128	Z128	X129	Y129	Z129	X130	Y130	Z130	X131	Y131	Z131	X132	Y132	Z132	X133	Y133	Z133	X134	Y134	Z134	X135	Y135	Z135	X136	Y136	Z136	X137	Y137	Z137	X138	Y138	Z138	X139	Y139	Z139	X140	Y140	Z140	X141	Y141	Z141	X142	Y142	Z142	X143	Y143	Z143	X144	Y144	Z144	X145	Y145	Z145	X146	Y146	Z146	X147	Y147	Z147	X148	Y148	Z148	X149	Y149	Z149	X150	Y150	Z150	X151	Y151	Z151	X152	Y152	Z152	X153	Y153	Z153	X154	Y154	Z154	X155	Y155	Z155	X156	Y156	Z156	X157	Y157	Z157	X158	Y158	Z158	X159	Y159	Z159	X160	Y160	Z160	X161	Y161	Z161	X162	Y162	Z162	X163	Y163	Z163	X164	Y164	Z164	X165	Y165	Z165	X166	Y166	Z166	X167	Y167	Z167	X168	Y168	Z168	X169	Y169	Z169	X170	Y170	Z170	X171	Y171	Z171	X172	Y172	Z172	X173	Y173	Z173	X174	Y174	Z174	X175	Y175	Z175	X176	Y176	Z176	X177	Y177	Z177	X178	Y178	Z178	X179	Y179	Z179	X180	Y180	Z180	X181	Y181	Z181	X182	Y182	Z182	X183	Y183	Z183	X184	Y184	Z184	X185	Y185	Z185	X186	Y186	Z186	X187	Y187	Z187	X188	Y188	Z188	X189	Y189	Z189	X190	Y190	Z190	X191	Y191	Z191	X192	Y192	Z192	X193	Y193	Z193	X194	Y194	Z194	X195	Y195	Z195	X196	Y196	Z196	X197	Y197	Z197	

151	1.5	96.60443115234381	931.6706542968755	271.6163635253907	226.5182495117189	931.6176147460942	275.7315063476564	100.7178192138672	929.2052612304692	141.725814819336	96.73549652099615	1061.626220703125	269.1538696289064	123.7123794555665	519.403747558594	205.0860137939454	515.7194824218752	543.419372558594	328.3772277832032	246.6710815429689	528.5880126953127	-187.6527862548829	98.04862213134771	930.239379882813	206.658660888672	83.24023437500003	78.69123077392581	210.3838806152345	501.4517822265627	40.67726898193361	242.9793548583986	115.2417755126954	70.70467376708987	-209.5215148925782	121.7555236816407	498.0950622558596	205.3421630859376	213.6036682128907	69.83142089843753	186.4136505126954	209.9858703613282	255.2585296630861	191.6760864257813	197.1568603515626	74.75347900390628	1.672592163085938	28.83242797851564	65.7626876831055	202.7547760009767	131.6729278564454	516.7236938476565	388.1219177246096	520.9944458007815	531.0617675781252	228.1709136962892	-24.7135467529297	455.2031555175784	1.961761474609376	95.16023254394534	933.1018676757817	336.5740661621095	-152.1261138916016	228.2854919433595	375.7657470703126	120.8492279052735	-38.84936523437501	341.9187011718751	-168.0882415771485	260.3447265625001	-5.992858886718752	116.6709442138672	501.4765625000002	387.4687194824221	-81.03908538818362	115.9351959228516	403.2900085449221	69.64699554443362	230.9487915039064	398.5524902343752	-72.00002288818362	96.33263397216803	214.8997497558595	-195.7947540283204	265.4158630371095	382.2300720214845	275.1940917968751	71.18766784667972	180.9666137695313	273.9881591796876	132.9966735839844	182.7207489013672	269.7118530273439	72.82835388183597	119.3862609863282	213.6036987304689	69.83142089843753	186.4136047363282	-42.78719329833986	66.10832214355472	410.3099670410159	7.441509246826175	104.4461822509766	408.7307739257815	-39.77420806884767	59.57413482666018	347.5132446289064	-81.03907775878909	115.9352264404297	403.2900085449221	133.8276367187501	1649.674072265626	254.4020996093751	312.9745483398439	1510.7021484375	233.5181121826173	112.6174774169922	1656.384765625001	27.80102539062501	272.7501831054689	1829.909301757813	246.7363739013673	64.82788085937503	1399.071166992188	65.91690826416018	261.4173583984376	1374.687133789063	-28.11788177490236	68.95562744140628	1613.237792968751	19.0110092163086	161.8850402832032	1439.352905273438	258.3795166015626	82.8513107299805	1405.107177734375	459.048278808594	286.2375488281251	1382.679931640625	535.3248291015627	74.20423126220706	1190.604736328125	419.0358581542971	161.8850097656251	1439.35302734375	258.3795471191407	161.8849792480469	1439.35302734375	258.3795166015626	378.8154907226564	1410.599365234375	258.3957519531251	162.5476989746094	1444.476440429688	477.1463012695315	133.1389923095704	1222.483032226563	263.5455932617189	-7.411460876464847	1117.954345703125	24.03862762451173	-291.0375061035157	1192.045776367188	15.93489742279053	-25.76033210754396	1079.447509765625	314.1756286621095	64.82792663574222	1399.071166992188	65.91688537597659	99.36635589599615	863.7868041992192	-2.94148874282837	-137.7903747558594	767.1094970703127	-30.7707920074463	83.24758911132815	829.9602050781255	251.9314880371095	0.06299591064453128	1100.16259765625	22.14998245239259	155.4908752441407	715.5089111328127	-45.94227218627931	202.7982025146486	775.5791625976567	-191.3346557617188	8.530288696289066	678.218200683594	-109.1668701171876	99.36634063720709	863.7868041992192	-2.941482543945313	1.421338438987732	1135.237426757813	528.6834106445315	-272.1139221191407	1226.534545898438	562.6367797851565	54.87365722656253	1191.315307617188	808.518432617188	82.85137939453128	1405.107055664063	459.048278808594	99.09684753417974	879.6098632812505	561.2529296875002	-135.8684844970704	797.6406250000005	622.5608520507815	146.2776794433594	929.108276367188	808.2553100585942	8.258567810058597	1117.343505859375	530.963317871094	139.9942169189454	726.6672973632815	583.4548339843752	220.8995666503907	767.4228515625002	715.175231933594	271.6706542968751	749.1284790039065	495.6267700195315	99.09683227539068	879.6099243164067	561.2529296875002	323.7677612304689	1588.155639648438	170.5022735595704	328.207733154297	1585.860595703126	298.617401123047	219.3977813720704	1674.904785156251	318.681854248047	65.91966247558597	1455.718139648438	53.51030731201175	49.23784637451175	1288.596923828125	5.689640045166017	12.56637287139893	1118.576293945313	-14.59749031066895	49.26913833618167	993.576293945313	-34.70797729492189	134.8709259033204	878.7136230468755	6.919942378997806	68.57619476318362	852.5689086914067	-25.45275115966798	134.9343872070313	798.8667602539067	-46.43450164794923	85.14798736572268	1462.078857421875	469.6755371093752	50.26208496093753	1254.497802734375	543.5299072265627	25.54088783264162	1137.28564453125	564.8262329101565	95.87818908691409	1006.338439941407	578.9417114257815	134.6910400390626	885.7937622070317	545.9539184570315	70.36540985107425	877.8790893554692	587.9129028320315	132.2517242431641	809.5211791992192	592.9163208007815	142.234603881836	753.601745605469	100.5752716064454	141.7840270996094	520.753601074219	147.3638763427735	110.0217361450196	308.8621520996095	135.2006225585938	86.65919494628909	77.83795928955081	165.5220489501954	228.1482391357423	45.19250488281251	192.2753906250001	154.1389160156251	525.5615234375002	443.5964050292971	-19.49753952026368	355.2511291503907	443.3452758789065	-150.2527923583985	224.5229949951173	420.5690002441409	149.2272338867188	1029.546752929688	162.4555816650391	32.44404220581056	40.42154693603517	208.2825164794923	197.9171752929689	1681.147705078126	177.7933044433594	155.681625366211	673.099792480469	460.5767211914065	-207.7127380371095	240.157928466797	359.812957763672	-90.17877960205081	91.49613189697268	390.1789550781252	202.4899291992189	1267.390991210938	263.9227600097657	142.3348541259766	1033.677734375	380.0979003906251	168.8242645263672	1438.43310546875	258.3800354003907	-46.506893157959	1028.860107421875	337.7293701171876	43.38914489746095	1533.534790039063	258.1716613769532	-40.59737396240236	1034.655029296875	200.0128173828126	-61.5712814331055	1364.731811523438	311.6726379394532	-48.78051376342776	1263.203002929688	263.1431274414064	-1.416583776473999	15.68572235107423	3.590167760849001	3.494394063949587	-12.77659606933594	8.155046463012699	0	0	6.543352603912357	2.829753637313844	-9.384072303771976	6.632501602172855	-5.786379337310793	24.22017478942873	5.2441463470459	23.10288238525391	-5.092841148376467	45.91669845581056	2.487344980239869	-11.63524723052979	-7.864537715911869	0	0	-7.70194244384766	-1.085548162460328	1.814627408981324	0.05777248740196231	1.085548162460328	-1.814627408981324	0.05777248740196231	-1.631650567054749	-5.052846908569338	-91.2614669799805	-1.44055449962616	-6.376552104949955	-37.51330566406251	2.319260835647584	-5.530254840850832	29.98549652099611	-2.319260835647584	5.530254840850832	29.98549652099611	-0.2562445402145387	-1.986799597740174	7.491457462310795	0.2562445402145387	1.986799597740174	7.491457462310795	9.620862960815433	2.580104112625123	-6.791162967681888	0	-4.524339073958691e-13	37.00963592529298	9.313459396362308	107.3939895629883	-3.049317598342897	12.69918251037598	9.156541824340824	-8.967192649841312	-1.590277359294756e-15	1.696825947979098e-12	37.71462249755861	-0.2194363623857499	110.5307388305665	-6.007761955261234	1.35278594493866	-0.004254093859344723	7.550526618957523	-1.35278594493866	0.004254093859344723	7.550526618957523	1.929361701011659	5.265615940093996	-37.62448883056642	-1.929361701011659	-5.265615940093996	-37.62448883056642	0	0.2187562584877015	0	0	-0.0171100962907076	0	0	-0.3631931841373445	0	0	-0.09676280617713934	0	0	0.001992567209526897	0	0	0.04007077962160112	0	0	0.004941469058394434	0	0	0.004941469058394434	0	0	-0.03066412359476091	0	0	-0.03066412359476091	0	0	-0.02017577923834325	0	0	-0.006765645463019613	0	0	0.01338358409702779	0	0	-0.008373249322175983	0	0	5.400539976108122e-06	0	0	-0.001125990878790617	0	-0.651386618614197	9.193171501159672	0.561494052410126	-5.723690986633303	93.71224212646487	6.640026569366459	nan	nan	nan	nan	nan	nan	0.2592706084251405	0.5324950814247134	9.07291412353516	-0.007505201734602455	0.02990129217505456	-0.100120984017849	-0.01021299324929715	0.1635233163833619	-0.1654047816991807	0.7783519625663762	-8.492046356201175	1.326263546943665	-0.002942156745120885	1.000985264778138	-0.4135255217552187	0.4337465763092043	-7.759100914001468	-0.3802869319915774	0.4659962058067324	-5.727156639099123	-0.3423743546009065	0.4659962058067324	-5.727156639099123	-0.3423743546009065	0.2162479460239412	-2.039112806320191	-0.1187520697712899	0.2162479460239412	-2.039112806320191	-0.1187520697712899	-0.009825012646615509	0.4407979249954226	0.1595627069473267	0.1049581319093705	0.4000649750232699	0.1213583499193192	0.001372967730276287	0.2103269696235658	-0.06982899457216266	0.04628279060125352	0.1842880845069886	-0.08186990022659305	-0.02009207382798196	0.06010452657938006	0.01306642498821021	0.01967225968837739	0.05646044015884402	0.02362635731697084	287.2677612304689	93.77742004394534	-832.0128784179692	nan	nan	nan	16.64353370666505	-1.162198305130005	675.3933715820315	-3.789561349149106e-16	-2.601566076278687	-15.51543807983399	33.61825180053712	-3.666334152221681	73.96687316894534	245.4647674560548	21.158597946167	-19.28152465820313	27.33458709716798	-11.81903266906739	59.15131378173831	443.0006103515627	-16.85680389404298	203.3570251464845	-59.01190567016604	27.69380760192873	145.0645294189454	59.01190567016604	-27.69380760192873	145.0645294189454	193.8204040527345	-27.07672119140626	573.0943603515627	-193.8204040527345	27.07672119140626	573.0943603515627	0.3735134899616243	0.4644396603107455	20.15258598327637	27.8452491760254	-5.481290340423586	6.260520458221439	-0.4245548248291018	0.2615781724452974	-16.37253952026368	9.110001564025882	0.1157439649105073	-20.26572608947755	1.376643896102906	-3.315866114331018e-16	0.718341648578644	1.334378123283387	-1.44477022796715e-15	1.753045797348023	88.15940093994143	1012.968566894532	267.4055480957032	88.15940093994143	0	267.4055480957032	
152	1.51	108.1264572143555	933.347290039063	270.9232482910157	238.0640869140626	933.1012573242192	274.1941833496095	111.3912200927735	930.4984741210942	141.0164947509766	108.4440689086915	1063.294799804688	268.0815429687501	126.897201538086	519.6751708984377	204.6021270751954	519.4500732421877	536.172546386719	330.0304565429689	252.1542510986329	526.3679199218752	-188.2949676513672	109.1459655761719	931.7251586914067	205.9619903564454	83.34323883056643	79.02776336669925	210.2842559814454	501.4242858886721	38.13978576660158	244.0577087402345	116.4254913330079	70.34146881103518	-209.7566070556642	124.7924499511719	498.3807678222659	204.8767089843751	213.7067260742189	69.82338714599612	186.4445953369141	210.5375213623048	255.2643432617189	191.5032043457032	197.4428863525392	74.58549499511722	1.683135986328126	28.91110229492189	66.22402191162112	202.6186828613282	151.8373260498047	519.1550292968752	387.6828308105471	538.935729980469	540.2150878906252	222.4658508300782	-8.597625732421879	454.0371704101565	3.488037109375002	107.1070175170899	934.9692382812505	335.8845520019532	-123.5119857788087	222.8347320556642	373.3357849121095	157.3025207519532	-36.85530090332033	347.5019836425782	-133.2197723388672	250.3627166748048	-8.908935546875004	137.2792358398438	503.4882812500002	386.924255371094	-47.06771469116212	114.6389770507813	403.0592346191409	97.32052612304693	237.526092529297	400.2946777343752	-33.35825347900392	94.3007507324219	215.0292968750001	-169.2189941406251	257.6143798828126	378.6881408691407	275.3052673339845	71.02317810058597	181.0532379150391	274.2488708496095	132.8368225097657	182.7394256591797	269.884002685547	72.61054229736331	119.4661102294922	213.7067260742189	69.82338714599612	186.4445953369141	-6.350615024566654	66.98051452636722	411.1829528808596	41.77878952026369	107.9428787231446	410.261413574219	-1.780824661254884	60.20109939575198	348.5062866210939	-47.06771850585939	114.6389846801758	403.059265136719	145.9817504882813	1651.158447265626	253.6555175781251	325.0806884765626	1512.063842773438	233.1810913085939	125.4050598144532	1658.026855468751	27.00080871582033	285.0612792968751	1831.292968750001	246.488006591797	77.60572052001956	1401.06982421875	64.67581176757815	274.507049560547	1376.866333007813	-28.70732879638673	81.97277832031253	1615.338500976563	18.34876251220704	173.9755554199219	1440.812255859375	257.5740966796876	94.37156677246097	1406.48388671875	458.025573730469	297.5595092773439	1383.960815429688	534.859069824219	85.77603912353518	1191.983764648438	417.8776855468752	173.975570678711	1440.812377929688	257.5741271972657	173.9755554199219	1440.812377929688	257.5741271972657	390.8974609375002	1411.989135742188	257.9656982421876	174.2345275878907	1445.73291015625	476.3473815917971	145.1508483886719	1223.946044921875	262.4859313964845	8.11025428771973	1119.40283203125	21.97136878967286	-276.1901245117189	1190.788696289063	13.78835010528565	-10.14571571350098	1079.939575195313	311.9696044921876	77.60572052001956	1401.06982421875	64.67578887939456	119.6373367309571	867.2382812500005	-5.322608947753908	-115.699333190918	766.2449340820315	-33.88076019287111	103.5952606201172	832.560668945313	249.5081176757814	15.91712951660157	1101.75146484375	20.06077384948731	178.3765563964844	720.2288818359377	-48.67765426635745	223.696990966797	781.2419433593755	-194.1601867675782	31.96115112304689	680.1369628906252	-111.1026000976563	119.6373596191407	867.2382202148442	-5.322612762451174	9.302052497863773	1137.348754882813	526.2239990234377	-263.3785400390626	1231.761840820313	558.6739501953127	61.55136489868167	1191.883422851563	806.612182617188	94.37163543701175	1406.483764648438	458.0256042480471	102.9126129150391	880.195678710938	558.7956542968752	-133.6981506347657	801.5844116210942	618.176940917969	149.0298156738282	928.3300781250005	806.2766113281255	15.85475158691407	1119.34814453125	528.504089355469	140.7028350830079	726.236022949219	580.6271972656252	222.2627868652345	764.989440917969	712.7424316406252	273.0968017578126	746.308288574219	493.0073852539065	102.9126052856446	880.1956176757817	558.795593261719	336.1170654296876	1589.536010742188	170.1969146728516	340.1802673339845	1587.182495117188	298.4165039062501	231.3772583007814	1676.292846679688	318.1885986328126	78.76088714599612	1457.748657226563	52.42126083374026	62.9799613952637	1290.71240234375	3.980031013488771	27.8640480041504	1120.402954101563	-16.77185440063477	66.874382019043	995.9602661132817	-36.94882965087892	154.950424194336	882.875610351563	4.390666007995607	88.90827941894534	855.388793945313	-27.71020507812501	156.2200622558594	803.110717773438	-49.02375411987308	96.65431213378912	1463.449584960938	468.6878051757815	59.41270446777347	1255.915893554688	541.8638305664065	33.28538513183595	1138.955078125	562.4796142578127	101.6666336059571	1007.007019042969	576.7068481445315	138.6676025390626	885.7296752929692	543.5568847656252	74.073844909668	879.000854492188	585.406921386719	134.6076660156251	809.2788696289067	590.3123779296877	150.5679168701172	753.6514282226565	99.74540710449224	145.2711486816407	520.656921386719	146.9680633544922	111.9208221435547	309.1125793457032	135.0758209228516	86.87571716308597	78.10025024414065	165.4327087402344	228.2951049804689	45.12973785400392	192.3328857421876	174.8703308105469	528.5037231445315	442.8401184082034	4.303152084350588	354.2670898437501	441.4894714355471	-122.3724517822266	219.6033935546876	418.2051086425784	160.1896972656251	1030.823974609375	161.1790618896485	32.52041244506837	40.72718811035158	208.3190002441407	210.2918243408204	1682.646362304688	177.2473449707032	174.3928222656251	676.633972167969	460.6033935546877	-180.6373291015626	232.2593536376954	356.9455871582032	-55.25268554687503	90.85607910156253	389.8154602050784	214.4790191650392	1268.848754882813	262.8916320800782	154.7213897705079	1035.595581054688	378.7669982910157	180.9145507812501	1439.890258789063	257.586639404297	-34.5083694458008	1031.076171875	337.8781127929689	55.5754089355469	1534.957397460938	257.0945739746095	-29.00647735595705	1036.2216796875	199.9391937255861	-49.53625869750979	1366.170654296875	310.1656494140626	-36.65002822875978	1264.654296875	261.7854003906251	-1.505525588989259	16.32078742980958	2.570582389831544	3.338860750198366	-12.92934226989747	7.45416355133057	0	0	6.79879999160767	2.854291439056397	-9.478226661682132	6.8933539390564	-5.65603017807007	24.57239151000978	6.408439636230472	23.85558700561524	-7.082371711730961	45.07865524291994	2.443838834762574	-11.45544910430909	-6.398176193237308	0	0	-6.270194530487064	-1.252748370170594	1.442344665527344	0.140026792883873	1.252748370170594	-1.442344665527344	0.140026792883873	-1.568318247795106	-5.001064300537111	-91.11584472656253	-0.8423578143119816	-7.384300231933597	-40.50898361206056	2.311628103256226	-5.475266456604006	30.01274871826173	-2.311628103256226	5.475266456604006	30.01274871826173	-0.03585022687911989	-1.50698733329773	7.429183006286625	0.03585022687911989	1.50698733329773	7.429183006286625	9.698819160461429	2.434071063995362	-6.238655090332035	0	-7.331178307652679e-13	37.52081298828126	9.378911018371586	106.9541473388672	-3.106760978698732	12.51456928253175	9.067263603210453	-9.666112899780277	-1.590277359294756e-15	-1.466235661530536e-12	37.52703857421876	-0.3702925145626069	110.8718261718751	-6.239740848541263	1.286137938499451	-0.1025438681244851	7.571047782897953	-1.286137938499451	0.1025438681244851	7.571047782897953	1.803932547569276	5.161703109741213	-37.67126464843751	-1.803932547569276	-5.161703109741213	-37.67126464843751	0	0.3348733782768251	0	0	-0.1315585374832154	0	0	-0.2873016297817231	0	0	-0.2311684042215348	0	0	-0.009344534017145637	0	0	0.03505045548081399	0	0	-0.004448065534234049	0	0	-0.004448065534234049	0	0	-0.006409189663827423	0	0	-0.006409189663827423	0	0	-0.02058081328868867	0	0	-0.01141001284122467	0	0	0.01433381810784341	0	0	-0.005496970843523743	0	0	-1.702132067293861e-05	0	0	-0.001037610927596689	0	-0.6017298102378847	8.877101898193363	0.5444350838661196	-5.549796581268312	90.49033355712893	6.133841037750248	nan	nan	nan	nan	nan	nan	0.2586413025856019	0.4925341308116915	8.756378173828129	-0.008096889592707161	-0.04328188300132753	-0.09276190400123599	0.04545751214027406	0.1843942552804947	-0.2981081604957582	0.7995581626892094	-8.198698997497562	1.220768809318543	0.06423784792423251	1.065864562988282	-0.3807800412178042	0.5865486264228823	-7.509266853332523	-0.4283885359764101	0.7221128940582278	-5.532020568847658	-0.4956139922142031	0.7221128940582278	-5.532020568847658	-0.4956139922142031	0.2515076696872712	-1.974209785461427	-0.3497980535030366	0.2515076696872712	-1.974209785461427	-0.3497980535030366	-0.01334431022405625	0.4141166806221011	0.161547988653183	0.1019382253289223	0.3750762939453127	0.1091585531830788	0.0006511945393867793	0.2007165551185609	-0.06085783988237384	0.04520822316408159	0.1678461283445359	-0.08260504156351092	-0.01779315993189812	0.05578246712684634	0.01458549872040749	0.02070215716958047	0.05197932943701747	0.02188482135534287	282.860076904297	87.741325378418	-735.1865234375002	nan	nan	nan	17.30892562866212	0.1789064705371857	721.451599121094	-7.579122698298211e-16	-1.417726993560791	-14.14237499237061	22.20062255859376	-2.31826949119568	22.40665245056153	235.4116516113282	23.65119361877442	-96.71038055419928	-31.71509170532228	-13.48468399047852	113.6829528808594	458.2219543457034	-12.03271389007569	272.7937622070314	49.73251724243167	23.8768482208252	295.8064575195314	-49.73251724243167	-23.8768482208252	295.8064575195314	351.6641845703126	-60.63544082641604	808.3471069335942	-351.6641845703126	60.63544082641604	808.3471069335942	1.742033600807191	0.3273828625679017	22.73698234558106	27.10054779052736	-4.982926368713381	1.433623194694519	-0.1936185508966447	0.2640916407108308	-14.76191997528077	8.299923896789554	0.09186358004808429	-20.21575546264649	1.277962923049927	1.421085439756465e-16	0.859808206558228	1.472036242485047	-1.18423792822654e-15	1.588657379150392	100.2456665039063	1014.278747558594	266.3976135253907	100.2456665039063	0	266.3976135253907	
